<svg xmlns="http://www.w3.org/2000/svg" version="1.1" xmlns:xlink="http://www.w3.org/1999/xlink"
    xmlns:svgjs="http://svgjs.com/svgjs" width="512" height="512" x="0" y="0" viewBox="0 0 24 24"
    style="enable-background:new 0 0 512 512" xml:space="preserve" class="">
    <g>
        <g data-name="1">
            <path fill="#2E938E63"
                d="M22.75 9v6c0 5.433-2.318 7.75-7.75 7.75H9c-5.432 0-7.75-2.317-7.75-7.75V9c0-5.433 2.318-7.75 7.75-7.75h6c5.432 0 7.75 2.317 7.75 7.75z"
                data-original="#2E938E63"></path>
            <path fill="#2e938e"
                d="M15 1.25H9C3.568 1.25 1.25 3.567 1.25 9v6c0 5.433 2.318 7.75 7.75 7.75h6c5.432 0 7.75-2.317 7.75-7.75V9c0-5.433-2.318-7.75-7.75-7.75zM21.25 15c0 4.614-1.636 6.25-6.25 6.25H9c-4.614 0-6.25-1.636-6.25-6.25V9c0-4.614 1.636-6.25 6.25-6.25h6c4.614 0 6.25 1.636 6.25 6.25zM16.5 9a.75.75 0 0 1-.75.75h-7.5a.75.75 0 0 1 0-1.5h7.5a.75.75 0 0 1 .75.75zm0 6a.75.75 0 0 1-.75.75h-7.5a.75.75 0 0 1 0-1.5h7.5a.75.75 0 0 1 .75.75z"
                data-original="#2e938e"></path>
        </g>
    </g>
</svg>