<svg xmlns="http://www.w3.org/2000/svg" version="1.1" xmlns:xlink="http://www.w3.org/1999/xlink"
    xmlns:svgjs="http://svgjs.com/svgjs" width="512" height="512" x="0" y="0" viewBox="0 0 24 24"
    style="enable-background:new 0 0 512 512" xml:space="preserve" class="">
    <g>
        <g data-name="1">
            <path fill="#CEB91759"
                d="M17.75 10v4A3.751 3.751 0 0 1 14 17.75h-4A3.751 3.751 0 0 1 6.25 14v-4A3.751 3.751 0 0 1 10 6.25h4A3.751 3.751 0 0 1 17.75 10z"
                data-original="#CEB91759"></path>
            <path fill="#CEB91759"
                d="M15 1.25H9C3.57 1.25 1.25 3.57 1.25 9v6c0 5.43 2.32 7.75 7.75 7.75h6c5.43 0 7.75-2.32 7.75-7.75V9c0-5.43-2.32-7.75-7.75-7.75zM21.25 15c0 4.61-1.64 6.25-6.25 6.25H9c-4.61 0-6.25-1.64-6.25-6.25V9c0-4.61 1.64-6.25 6.25-6.25h6c4.61 0 6.25 1.64 6.25 6.25z"
                data-original="#CEB91759"></path>
            <path fill="#ceb817"
                d="M14 6.25h-4A3.751 3.751 0 0 0 6.25 10v4A3.751 3.751 0 0 0 10 17.75h4A3.751 3.751 0 0 0 17.75 14v-4A3.751 3.751 0 0 0 14 6.25zm-2.75 10H10A2.253 2.253 0 0 1 7.75 14v-1.25h3.5zm0-5h-3.5V10A2.253 2.253 0 0 1 10 7.75h1.25zm5 2.75A2.253 2.253 0 0 1 14 16.25h-1.25v-3.5h3.5zm0-2.75h-3.5v-3.5H14A2.253 2.253 0 0 1 16.25 10zm-2.25-5h-4A3.751 3.751 0 0 0 6.25 10v4A3.751 3.751 0 0 0 10 17.75h4A3.751 3.751 0 0 0 17.75 14v-4A3.751 3.751 0 0 0 14 6.25zm-2.75 10H10A2.253 2.253 0 0 1 7.75 14v-1.25h3.5zm0-5h-3.5V10A2.253 2.253 0 0 1 10 7.75h1.25zm5 2.75A2.253 2.253 0 0 1 14 16.25h-1.25v-3.5h3.5zm0-2.75h-3.5v-3.5H14A2.253 2.253 0 0 1 16.25 10zM15 1.25H9C3.57 1.25 1.25 3.57 1.25 9v6c0 5.43 2.32 7.75 7.75 7.75h6c5.43 0 7.75-2.32 7.75-7.75V9c0-5.43-2.32-7.75-7.75-7.75zM21.25 15c0 4.61-1.64 6.25-6.25 6.25H9c-4.61 0-6.25-1.64-6.25-6.25V9c0-4.61 1.64-6.25 6.25-6.25h6c4.61 0 6.25 1.64 6.25 6.25zM14 6.25h-4A3.751 3.751 0 0 0 6.25 10v4A3.751 3.751 0 0 0 10 17.75h4A3.751 3.751 0 0 0 17.75 14v-4A3.751 3.751 0 0 0 14 6.25zm-2.75 10H10A2.253 2.253 0 0 1 7.75 14v-1.25h3.5zm0-5h-3.5V10A2.253 2.253 0 0 1 10 7.75h1.25zm5 2.75A2.253 2.253 0 0 1 14 16.25h-1.25v-3.5h3.5zm0-2.75h-3.5v-3.5H14A2.253 2.253 0 0 1 16.25 10z"
                data-original="#ceb817" class=""></path>
        </g>
    </g>
</svg>