<svg width="572" height="580" viewBox="0 0 572 580" fill="none" xmlns="http://www.w3.org/2000/svg">
<path d="M376.167 325.417V430.665L459.383 382.618L459.569 382.736L571.679 318.018V417.81L289.533 579.512V314.904C289.533 277.956 309.413 243.49 341.444 224.993L571.679 92.4903V192.329L495.511 236.302L495.323 236.185L393.868 294.768C382.957 301.066 376.167 312.82 376.167 325.417Z" fill="#CEB817"/>
<path d="M87.1393 467.918L61.0553 452.838C23.6153 431.227 0.364655 390.931 0.364655 347.731V169.734C0.364655 132.295 15.8647 103.659 15.8647 103.659L75.1047 136.954C75.1047 136.954 68.2673 161.679 68.2673 169.734V356.666C68.2673 390.75 73.4847 424.634 83.7393 457.139L87.1393 467.918Z" fill="#2E938E"/>
<path d="M295.973 249.531L287.637 268.496C281.433 282.592 278.131 297.46 277.85 312.703L277.662 322.467L166.069 340.613L277.826 492.643V579.511L27.362 284.137L295.973 249.531Z" fill="#2E938E"/>
<path d="M398.411 65.566L217.37 169.714C213.249 172.102 209.41 174.842 205.943 177.862L199.717 183.247L139.353 149.319L149.234 138.455C159.162 127.521 170.658 118.273 183.395 110.921L346.899 18.7367C346.899 18.7367 363.289 49.1767 398.411 65.566Z" fill="#1A1A1A"/>
<path d="M429.478 43.0159C425.419 50.0826 415.895 52.7879 405.102 50.9666C399.719 50.0826 394.033 48.0679 388.539 44.8933C379.043 39.3999 372.225 31.6973 369.326 24.1053C367.145 18.5026 367.117 13.0079 369.683 8.50927C375.785 -2.06406 394.115 -2.89206 410.623 6.63194C427.131 16.1546 435.551 32.4426 429.478 43.0159Z" fill="#1A1A1A"/>
</svg>
