<svg xmlns="http://www.w3.org/2000/svg" viewBox="0 0 20 20"><defs><style>.a{fill:#ffc552;}.b{fill:#0e5583;}</style></defs><g transform="translate(-85.333 -85.08)"><path class="a" d="M174.4,100.586l-8.6,8.6a.5.5,0,0,0,.354.854h3.293l-2.776,7.932a.5.5,0,0,0,.826.519l8.6-8.6a.5.5,0,0,0-.354-.854h-3.293l2.776-7.932A.5.5,0,0,0,174.4,100.586Z" transform="translate(-75.612 -14.457)"/><g transform="translate(85.333 85.08)"><path class="b" d="M131,141.389a.5.5,0,0,1-.321-.117,7.5,7.5,0,0,1,4.286-13.226.5.5,0,0,1,.07,1,6.5,6.5,0,0,0-3.714,11.463.5.5,0,0,1-.322.883Z" transform="translate(-125.5 -125.527)"/><path class="b" d="M175.481,87.08a.5.5,0,0,1-.224-.947,9.9,9.9,0,0,1,4.471-1.053,10.108,10.108,0,0,1,1.578.124.5.5,0,1,1-.157.988,9.1,9.1,0,0,0-1.422-.112,8.908,8.908,0,0,0-4.023.947A.5.5,0,0,1,175.481,87.08Z" transform="translate(-169.728 -85.08)"/><path class="b" d="M89.833,137.615a.5.5,0,0,1-.289-.093,10,10,0,0,1-.526-15.908.5.5,0,0,1,.632.775,9,9,0,0,0,.474,14.318.5.5,0,0,1-.29.908Z" transform="translate(-85.333 -119.368)"/><path class="b" d="M247.967,347.52a.5.5,0,1,1,0-1,6.46,6.46,0,0,0,3.714-1.165.5.5,0,1,1,.572.82A7.456,7.456,0,0,1,247.967,347.52Z" transform="translate(-237.967 -330.02)"/><path class="b" d="M325.63,166.563a.5.5,0,0,1-.383-.822,6.5,6.5,0,0,0-.8-9.158.5.5,0,0,1,.643-.766,7.5,7.5,0,0,1,.923,10.567A.5.5,0,0,1,325.63,166.563Z" transform="translate(-310.268 -151.563)"/><path class="b" d="M223.865,177.38a10.106,10.106,0,0,1-1.578-.124.5.5,0,1,1,.157-.988,9.008,9.008,0,0,0,10.422-8.888,8.977,8.977,0,0,0-1.346-4.736.5.5,0,0,1,.85-.527,10,10,0,0,1-8.5,15.263Z" transform="translate(-213.865 -157.38)"/></g></g></svg>