<svg xmlns="http://www.w3.org/2000/svg" width="64.234" height="64.234" viewBox="0 0 64.234 64.234">
    <g transform="translate(0 0)">
        <g fill="#fff" stroke="#ceb817" stroke-width="4">
            <circle cx="32.118" cy="32.118" r="32.118" stroke="none" />
            <circle cx="32.118" cy="32.118" r="30.118" fill="none" />
        </g>
    </g>
    <path
        d="M4.3,15.067h.908a10.748,10.748,0,0,0,19.708,0h.908a1.079,1.079,0,0,0,1.076-1.076V7.534A1.079,1.079,0,0,0,25.83,6.457h-.908a10.748,10.748,0,0,0-19.708,0H4.3A1.079,1.079,0,0,0,3.229,7.534v6.457A1.079,1.079,0,0,0,4.3,15.067ZM7,9.148a3,3,0,0,1,3.229-2.691H19.91a3,3,0,0,1,3.229,2.691v1.614a6.459,6.459,0,0,1-6.457,6.457H13.453A6.459,6.459,0,0,1,7,10.762Zm4.843,4.843.807-2.422,2.422-.807-2.422-.807-.807-2.422-.807,2.422-2.422.807,2.422.807Zm10.2,7.628a12.826,12.826,0,0,1-13.937,0A9.015,9.015,0,0,0,0,30.565v.646a3.23,3.23,0,0,0,3.229,3.229H8.61v-4.3a2.15,2.15,0,0,1,2.152-2.152h8.61a2.15,2.15,0,0,1,2.152,2.152v4.3h5.381a3.23,3.23,0,0,0,3.229-3.229v-.646A9.015,9.015,0,0,0,22.036,21.619ZM18.3,30.134a1.076,1.076,0,1,0,1.076,1.076A1.079,1.079,0,0,0,18.3,30.134Zm-6.457,0a1.079,1.079,0,0,0-1.076,1.076v3.229h2.152V31.211A1.079,1.079,0,0,0,11.839,30.134Z"
        transform="translate(16.688 14.818)" fill="#2e938e" />
</svg>