<svg xmlns="http://www.w3.org/2000/svg" width="54.201" height="67.984" viewBox="0 0 54.201 67.984">
    <g transform="translate(-7.893)">
        <g transform="matrix(0.259, -0.966, 0.966, 0.259, 0, 54.345)">
            <path d="M9.537,7.46,43.247,0,0,30.689Z" transform="translate(0 22.008)" fill="#2e938e" />
            <path d="M10.385,2.1,25.505,0,0,35.018Z" transform="translate(12.92 39.597) rotate(-120)" fill="#318380" />
        </g>
        <path
            d="M26.944,3.933a1.88,1.88,0,0,1,2.673,1.705V19.924a1.877,1.877,0,0,1-.813,1.549,12.3,12.3,0,0,1-7.2,2.4c-3.959,0-6.56-2.044-9.709-2.044a16.419,16.419,0,0,0-6.725,1.3v5.547a1.41,1.41,0,0,1-1.41,1.41h-.94a1.41,1.41,0,0,1-1.41-1.41V5.991A3.29,3.29,0,1,1,6.364,4.467a11.42,11.42,0,0,1,4-.706c3.959,0,6.56,2.044,9.709,2.044a17.108,17.108,0,0,0,6.873-1.872ZM5.171,7.911v4.142A20.759,20.759,0,0,1,9.5,10.825V6.619A16.727,16.727,0,0,0,5.171,7.911Zm12.975.54A34.513,34.513,0,0,1,13.821,7.2v3.962c1.421.394,2.8.966,4.325,1.311ZM9.5,10.825v4.116a13.041,13.041,0,0,1,4.325.223v-4A9.937,9.937,0,0,0,9.5,10.825Zm4.325,8.358a34.473,34.473,0,0,1,4.325,1.254V16.476c-1.427-.4-2.794-.967-4.325-1.312Zm-8.65.92A18.606,18.606,0,0,1,9.5,19.13V14.941a16.654,16.654,0,0,0-4.325,1.02V20.1ZM26.8,7.081A21.069,21.069,0,0,1,22.472,8.4v4.226a18.623,18.623,0,0,0,4.325-1.4Zm0,12.338V15.277a10.924,10.924,0,0,1-4.325,1.529v4.206A9.513,9.513,0,0,0,26.8,19.419Zm-8.65-6.949v4.005a9.889,9.889,0,0,0,4.325.33V12.627A11.156,11.156,0,0,1,18.146,12.47Z"
            transform="translate(27.31 0)" />
    </g>
</svg>