<svg xmlns="http://www.w3.org/2000/svg" width="65" height="65" viewBox="0 0 65 65">
    <g transform="translate(0 0)">
        <g fill="#fff" stroke="#ceb817" stroke-width="4">
            <circle cx="32.5" cy="32.5" r="32.5" stroke="none" />
            <circle cx="32.5" cy="32.5" r="30.5" fill="none" />
        </g>
    </g>
    <path
        d="M6.075,28.734a2.025,2.025,0,0,0,.339,1.119L7.5,31.478a2.023,2.023,0,0,0,1.685.9h3.9a2.023,2.023,0,0,0,1.685-.9l1.081-1.625a2.023,2.023,0,0,0,.339-1.119l0-2.425H6.072l0,2.425ZM0,11.13a11.069,11.069,0,0,0,2.755,7.322,18.175,18.175,0,0,1,3.3,5.784c0,.016,0,.033.007.049H16.2c0-.016,0-.032.007-.049a18.175,18.175,0,0,1,3.3-5.784A11.129,11.129,0,1,0,0,11.13Zm11.131-5.06a5.065,5.065,0,0,0-5.06,5.06,1.012,1.012,0,0,1-2.024,0,7.091,7.091,0,0,1,7.083-7.083,1.012,1.012,0,1,1,0,2.024Z"
        transform="translate(21.408 16.344)" fill="#2e938e" />
</svg>