<svg xmlns="http://www.w3.org/2000/svg" width="63.529" height="63.529" viewBox="0 0 63.529 63.529">
    <g transform="translate(0 0)">
        <g fill="#fff" stroke="#ceb817" stroke-width="4">
            <ellipse cx="31.765" cy="31.765" rx="31.765" ry="31.765" stroke="none" />
            <ellipse cx="31.765" cy="31.765" rx="29.765" ry="29.765" fill="none" />
        </g>
    </g>
    <path
        d="M26.368,11.3V4.547a1.884,1.884,0,0,0-.551-1.332L23.152.551A1.883,1.883,0,0,0,21.82,0H5.65A1.884,1.884,0,0,0,3.767,1.883V11.3A3.767,3.767,0,0,0,0,15.067v6.592a.941.941,0,0,0,.942.942H3.767v5.65A1.884,1.884,0,0,0,5.65,30.134H24.484a1.884,1.884,0,0,0,1.883-1.883V22.6h2.825a.941.941,0,0,0,.942-.942V15.067A3.767,3.767,0,0,0,26.368,11.3ZM22.6,26.368H7.534v-5.65H22.6Zm0-13.184H7.534V3.767h11.3V6.592a.941.941,0,0,0,.942.942H22.6Zm2.825,4.238a1.413,1.413,0,1,1,1.413-1.413A1.413,1.413,0,0,1,25.426,17.421Z"
        transform="translate(16.597 16.863)" fill="#2e938e" />
</svg>